<svg width="985" height="154" viewBox="0 0 985 154" fill="none" xmlns="http://www.w3.org/2000/svg">
<g clip-path="url(#clip0_42_419)">
<path d="M34.1459 44.2453C33.2969 43.3949 33.2969 42.0162 34.1459 41.1658L37.2203 38.0863C38.0692 37.236 39.4457 37.236 40.2946 38.0863C41.1436 38.9367 41.1436 40.3155 40.2946 41.1658L37.2203 44.2453C36.3713 45.0957 34.9948 45.0957 34.1459 44.2453Z" fill="white"/>
<path d="M22.8415 51.2443C21.9925 52.0947 21.9925 53.4734 22.8415 54.3238C23.6905 55.1742 25.0669 55.1742 25.9159 54.3238L28.9903 51.2443C29.8392 50.3939 29.8392 49.0152 28.9903 48.1648C28.1413 47.3145 26.7648 47.3145 25.9159 48.1648L22.8415 51.2443Z" fill="white"/>
<path d="M35.885 55.5994C35.036 56.4497 35.036 57.8285 35.885 58.6788C36.7339 59.5292 38.1104 59.5292 38.9594 58.6788L42.0337 55.5994C42.8827 54.749 42.8827 53.3703 42.0337 52.5199C41.1848 51.6695 39.8083 51.6695 38.9594 52.5199L35.885 55.5994Z" fill="white"/>
<path d="M48.9285 42.5342C48.0795 43.3846 48.0795 44.7633 48.9285 45.6137C49.7774 46.4641 51.1539 46.4641 52.0028 45.6137L55.0772 42.5342C55.9262 41.6838 55.9262 40.3051 55.0772 39.4547C54.2282 38.6044 52.8518 38.6044 52.0028 39.4547L48.9285 42.5342Z" fill="white"/>
<path d="M61.9719 49.9688C61.123 49.1184 61.123 47.7396 61.9719 46.8893L65.0463 43.8098C65.8953 42.9594 67.2717 42.9594 68.1207 43.8098C68.9696 44.6602 68.9696 46.0389 68.1207 46.8893L65.0463 49.9688C64.1973 50.8191 62.8209 50.8191 61.9719 49.9688Z" fill="white"/>
<path d="M70.6676 55.5994C69.8186 56.4497 69.8186 57.8285 70.6676 58.6788C71.5165 59.5292 72.893 59.5292 73.742 58.6788L76.8163 55.5994C77.6653 54.749 77.6653 53.3703 76.8163 52.5199C75.9674 51.6695 74.5909 51.6695 73.742 52.5199L70.6676 55.5994Z" fill="white"/>
<path d="M51.5372 59.9854C50.6882 59.135 50.6882 57.7563 51.5372 56.9059L54.6116 53.8264C55.4605 52.9761 56.837 52.9761 57.6859 53.8264C58.5349 54.6768 58.5349 56.0555 57.6859 56.9059L54.6116 59.9854C53.7626 60.8358 52.3861 60.8358 51.5372 59.9854Z" fill="white"/>
<path fill-rule="evenodd" clip-rule="evenodd" d="M9.61909 67.8737C4.81765 67.7739 0.90019 63.7233 2.28475 59.1171C2.93648 56.9489 3.81838 54.8263 4.92401 52.7734C7.45736 48.0697 11.1157 43.8239 15.6901 40.2785C20.2645 36.7332 25.6654 33.9577 31.5845 32.1105C37.5035 30.2634 43.8248 29.3807 50.1874 29.5129C56.55 29.6452 62.8293 30.7897 68.6668 32.8812C74.5042 34.9727 79.7856 37.9702 84.2092 41.7025C88.6329 45.4349 92.1122 49.829 94.4486 54.634C94.8196 55.397 95.1606 56.168 95.4714 56.9458C98.1482 63.6448 91.9876 69.5855 84.7854 69.4358L9.61909 67.8737ZM6.44796 60.3727C7.01319 58.4922 7.78101 56.6413 8.75053 54.8412C10.972 50.7165 14.2159 46.9276 18.3507 43.7229C22.4868 40.5173 27.4175 37.9724 32.8777 36.2685C38.3374 34.5647 44.1907 33.7443 50.0972 33.867C56.0037 33.9898 61.8181 35.0527 67.2024 36.9818C72.5874 38.9112 77.4085 41.6587 81.4082 45.0334C85.4068 48.4071 88.491 52.3275 90.5398 56.541C90.8652 57.2102 91.1635 57.8849 91.4349 58.564C92.0864 60.1945 91.7298 61.6108 90.6262 62.8182C89.4191 64.1388 87.3079 65.1323 84.8756 65.0817L9.70928 63.5196C8.47823 63.494 7.46669 62.9576 6.89612 62.3082C6.38423 61.7256 6.22972 61.0987 6.44796 60.3727Z" fill="white"/>
<path d="M8.69565 111.08C3.89318 111.08 2.86364e-08 114.979 2.86364e-08 119.79C2.86364e-08 124.6 3.89318 128.5 8.69565 128.5H71.7391C72.9397 128.5 73.913 127.525 73.913 126.322C73.913 125.12 72.9397 124.145 71.7391 124.145H8.69565C6.29441 124.145 4.34782 122.195 4.34782 119.79C4.34782 117.385 6.29441 115.435 8.69565 115.435H91.3043C93.7056 115.435 95.6521 117.385 95.6521 119.79C95.6521 122.195 93.7056 124.145 91.3043 124.145H82.6087C81.4081 124.145 80.4348 125.12 80.4348 126.322C80.4348 127.525 81.4081 128.5 82.6087 128.5H91.3043C96.1068 128.5 100 124.6 100 119.79C100 114.979 96.1068 111.08 91.3043 111.08H8.69565Z" fill="white"/>
<path d="M3.63626 74.6282C4.97286 75.8453 6.06901 76.2394 6.95654 76.2394C7.84406 76.2394 8.94021 75.8453 10.2768 74.6282C12.1286 72.9419 14.2209 71.8844 16.5217 71.8844C18.8226 71.8844 20.9149 72.9419 22.7667 74.6282C24.1033 75.8453 25.1994 76.2394 26.087 76.2394C26.9745 76.2394 28.0706 75.8453 29.4072 74.6282C31.259 72.9419 33.3513 71.8844 35.6522 71.8844C37.9531 71.8844 40.0453 72.9419 41.8971 74.6282C43.2337 75.8453 44.3299 76.2394 45.2174 76.2394C46.1049 76.2394 47.2011 75.8453 48.5377 74.6282C50.3895 72.9419 52.4817 71.8844 54.7826 71.8844C57.0835 71.8844 59.1757 72.9419 61.0275 74.6282C62.3642 75.8453 63.4603 76.2394 64.3478 76.2394C65.2353 76.2394 66.3315 75.8453 67.6681 74.6282C69.5199 72.9419 71.6122 71.8844 73.913 71.8844C76.2139 71.8844 78.3062 72.9419 80.158 74.6282C81.4946 75.8453 82.5907 76.2394 83.4783 76.2394C84.3658 76.2394 85.4619 75.8453 86.7985 74.6282C88.6503 72.9419 90.7426 71.8844 93.0435 71.8844C95.3443 71.8844 97.4366 72.9419 99.2884 74.6282C100.177 75.4372 100.242 76.8143 99.4346 77.7042C98.627 78.594 97.2521 78.6596 96.3637 77.8507C95.0271 76.6336 93.931 76.2394 93.0435 76.2394C92.1559 76.2394 91.0598 76.6336 89.7232 77.8507C87.8714 79.5369 85.7791 80.5945 83.4783 80.5945C81.1774 80.5945 79.0851 79.5369 77.2333 77.8507C75.8967 76.6336 74.8006 76.2394 73.913 76.2394C73.0255 76.2394 71.9294 76.6336 70.5928 77.8507C68.741 79.5369 66.6487 80.5945 64.3478 80.5945C62.0469 80.5945 59.9547 79.5369 58.1029 77.8507C56.7663 76.6336 55.6701 76.2394 54.7826 76.2394C53.8951 76.2394 52.7989 76.6336 51.4623 77.8507C49.6105 79.5369 47.5183 80.5945 45.2174 80.5945C42.9165 80.5945 40.8243 79.5369 38.9725 77.8507C37.6359 76.6336 36.5397 76.2394 35.6522 76.2394C34.7647 76.2394 33.6685 76.6336 32.3319 77.8507C30.4801 79.5369 28.3878 80.5945 26.087 80.5945C23.7861 80.5945 21.6938 79.5369 19.842 77.8507C18.5054 76.6336 17.4093 76.2394 16.5217 76.2394C15.6342 76.2394 14.5381 76.6336 13.2015 77.8507C11.3497 79.5369 9.25742 80.5945 6.95654 80.5945C4.65565 80.5945 2.5634 79.5369 0.711596 77.8507C-0.17679 77.0417 -0.242261 75.6645 0.565363 74.7747C1.37299 73.8848 2.74787 73.8192 3.63626 74.6282Z" fill="white"/>
<path d="M8.69567 91.4821C8.69567 90.2795 9.66896 89.3046 10.8696 89.3046H93.4783C94.6789 89.3046 95.6522 88.3297 95.6522 87.127C95.6522 85.9244 94.6789 84.9495 93.4783 84.9495H10.8696C7.26772 84.9495 4.34784 87.8743 4.34784 91.4821C4.34784 95.0899 7.26772 98.0147 10.8696 98.0147H89.1304C90.331 98.0147 91.3043 98.9896 91.3043 100.192C91.3043 101.395 90.331 102.37 89.1304 102.37H6.52175C5.32113 102.37 4.34784 103.345 4.34784 104.547C4.34784 105.75 5.32113 106.725 6.52175 106.725H89.1304C92.7323 106.725 95.6522 103.8 95.6522 100.192C95.6522 96.5844 92.7323 93.6596 89.1304 93.6596H10.8696C9.66896 93.6596 8.69567 92.6847 8.69567 91.4821Z" fill="white"/>
<path d="M34.1459 44.2453C33.2969 43.3949 33.2969 42.0162 34.1459 41.1658L37.2203 38.0863C38.0692 37.236 39.4457 37.236 40.2946 38.0863C41.1436 38.9367 41.1436 40.3155 40.2946 41.1658L37.2203 44.2453C36.3713 45.0957 34.9948 45.0957 34.1459 44.2453Z" stroke="white" stroke-width="3.71562"/>
<path d="M22.8415 51.2443C21.9925 52.0947 21.9925 53.4734 22.8415 54.3238C23.6905 55.1742 25.0669 55.1742 25.9159 54.3238L28.9903 51.2443C29.8392 50.3939 29.8392 49.0152 28.9903 48.1648C28.1413 47.3145 26.7648 47.3145 25.9159 48.1648L22.8415 51.2443Z" stroke="white" stroke-width="3.71562"/>
<path d="M35.885 55.5994C35.036 56.4497 35.036 57.8285 35.885 58.6788C36.7339 59.5292 38.1104 59.5292 38.9594 58.6788L42.0337 55.5994C42.8827 54.749 42.8827 53.3703 42.0337 52.5199C41.1848 51.6695 39.8083 51.6695 38.9594 52.5199L35.885 55.5994Z" stroke="white" stroke-width="3.71562"/>
<path d="M48.9285 42.5342C48.0795 43.3846 48.0795 44.7633 48.9285 45.6137C49.7774 46.4641 51.1539 46.4641 52.0028 45.6137L55.0772 42.5342C55.9262 41.6838 55.9262 40.3051 55.0772 39.4547C54.2282 38.6044 52.8518 38.6044 52.0028 39.4547L48.9285 42.5342Z" stroke="white" stroke-width="3.71562"/>
<path d="M61.9719 49.9688C61.123 49.1184 61.123 47.7396 61.9719 46.8893L65.0463 43.8098C65.8953 42.9594 67.2717 42.9594 68.1207 43.8098C68.9696 44.6602 68.9696 46.0389 68.1207 46.8893L65.0463 49.9688C64.1973 50.8191 62.8209 50.8191 61.9719 49.9688Z" stroke="white" stroke-width="3.71562"/>
<path d="M70.6676 55.5994C69.8186 56.4497 69.8186 57.8285 70.6676 58.6788C71.5165 59.5292 72.893 59.5292 73.742 58.6788L76.8163 55.5994C77.6653 54.749 77.6653 53.3703 76.8163 52.5199C75.9674 51.6695 74.5909 51.6695 73.742 52.5199L70.6676 55.5994Z" stroke="white" stroke-width="3.71562"/>
<path d="M51.5372 59.9854C50.6882 59.135 50.6882 57.7563 51.5372 56.9059L54.6116 53.8264C55.4605 52.9761 56.837 52.9761 57.6859 53.8264C58.5349 54.6768 58.5349 56.0555 57.6859 56.9059L54.6116 59.9854C53.7626 60.8358 52.3861 60.8358 51.5372 59.9854Z" stroke="white" stroke-width="3.71562"/>
<path fill-rule="evenodd" clip-rule="evenodd" d="M9.61909 67.8737C4.81765 67.7739 0.90019 63.7233 2.28475 59.1171C2.93648 56.9489 3.81838 54.8263 4.92401 52.7734C7.45736 48.0697 11.1157 43.8239 15.6901 40.2785C20.2645 36.7332 25.6654 33.9577 31.5845 32.1105C37.5035 30.2634 43.8248 29.3807 50.1874 29.5129C56.55 29.6452 62.8293 30.7897 68.6668 32.8812C74.5042 34.9727 79.7856 37.9702 84.2092 41.7025C88.6329 45.4349 92.1122 49.829 94.4486 54.634C94.8196 55.397 95.1606 56.168 95.4714 56.9458C98.1482 63.6448 91.9876 69.5855 84.7854 69.4358L9.61909 67.8737ZM6.44796 60.3727C7.01319 58.4922 7.78101 56.6413 8.75053 54.8412C10.972 50.7165 14.2159 46.9276 18.3507 43.7229C22.4868 40.5173 27.4175 37.9724 32.8777 36.2685C38.3374 34.5647 44.1907 33.7443 50.0972 33.867C56.0037 33.9898 61.8181 35.0527 67.2024 36.9818C72.5874 38.9112 77.4085 41.6587 81.4082 45.0334C85.4068 48.4071 88.491 52.3275 90.5398 56.541C90.8652 57.2102 91.1635 57.8849 91.4349 58.564C92.0864 60.1945 91.7298 61.6108 90.6262 62.8182C89.4191 64.1388 87.3079 65.1323 84.8756 65.0817L9.70928 63.5196C8.47823 63.494 7.46669 62.9576 6.89612 62.3082C6.38423 61.7256 6.22972 61.0987 6.44796 60.3727Z" stroke="white" stroke-width="3.71562"/>
<path d="M8.69565 111.08C3.89318 111.08 2.86364e-08 114.979 2.86364e-08 119.79C2.86364e-08 124.6 3.89318 128.5 8.69565 128.5H71.7391C72.9397 128.5 73.913 127.525 73.913 126.322C73.913 125.12 72.9397 124.145 71.7391 124.145H8.69565C6.29441 124.145 4.34782 122.195 4.34782 119.79C4.34782 117.385 6.29441 115.435 8.69565 115.435H91.3043C93.7056 115.435 95.6521 117.385 95.6521 119.79C95.6521 122.195 93.7056 124.145 91.3043 124.145H82.6087C81.4081 124.145 80.4348 125.12 80.4348 126.322C80.4348 127.525 81.4081 128.5 82.6087 128.5H91.3043C96.1068 128.5 100 124.6 100 119.79C100 114.979 96.1068 111.08 91.3043 111.08H8.69565Z" stroke="white" stroke-width="3.71562"/>
<path d="M3.63626 74.6282C4.97286 75.8453 6.06901 76.2394 6.95654 76.2394C7.84406 76.2394 8.94021 75.8453 10.2768 74.6282C12.1286 72.9419 14.2209 71.8844 16.5217 71.8844C18.8226 71.8844 20.9149 72.9419 22.7667 74.6282C24.1033 75.8453 25.1994 76.2394 26.087 76.2394C26.9745 76.2394 28.0706 75.8453 29.4072 74.6282C31.259 72.9419 33.3513 71.8844 35.6522 71.8844C37.9531 71.8844 40.0453 72.9419 41.8971 74.6282C43.2337 75.8453 44.3299 76.2394 45.2174 76.2394C46.1049 76.2394 47.2011 75.8453 48.5377 74.6282C50.3895 72.9419 52.4817 71.8844 54.7826 71.8844C57.0835 71.8844 59.1757 72.9419 61.0275 74.6282C62.3642 75.8453 63.4603 76.2394 64.3478 76.2394C65.2353 76.2394 66.3315 75.8453 67.6681 74.6282C69.5199 72.9419 71.6122 71.8844 73.913 71.8844C76.2139 71.8844 78.3062 72.9419 80.158 74.6282C81.4946 75.8453 82.5907 76.2394 83.4783 76.2394C84.3658 76.2394 85.4619 75.8453 86.7985 74.6282C88.6503 72.9419 90.7426 71.8844 93.0435 71.8844C95.3443 71.8844 97.4366 72.9419 99.2884 74.6282C100.177 75.4372 100.242 76.8143 99.4346 77.7042C98.627 78.594 97.2521 78.6596 96.3637 77.8507C95.0271 76.6336 93.931 76.2394 93.0435 76.2394C92.1559 76.2394 91.0598 76.6336 89.7232 77.8507C87.8714 79.5369 85.7791 80.5945 83.4783 80.5945C81.1774 80.5945 79.0851 79.5369 77.2333 77.8507C75.8967 76.6336 74.8006 76.2394 73.913 76.2394C73.0255 76.2394 71.9294 76.6336 70.5928 77.8507C68.741 79.5369 66.6487 80.5945 64.3478 80.5945C62.0469 80.5945 59.9547 79.5369 58.1029 77.8507C56.7663 76.6336 55.6701 76.2394 54.7826 76.2394C53.8951 76.2394 52.7989 76.6336 51.4623 77.8507C49.6105 79.5369 47.5183 80.5945 45.2174 80.5945C42.9165 80.5945 40.8243 79.5369 38.9725 77.8507C37.6359 76.6336 36.5397 76.2394 35.6522 76.2394C34.7647 76.2394 33.6685 76.6336 32.3319 77.8507C30.4801 79.5369 28.3878 80.5945 26.087 80.5945C23.7861 80.5945 21.6938 79.5369 19.842 77.8507C18.5054 76.6336 17.4093 76.2394 16.5217 76.2394C15.6342 76.2394 14.5381 76.6336 13.2015 77.8507C11.3497 79.5369 9.25742 80.5945 6.95654 80.5945C4.65565 80.5945 2.5634 79.5369 0.711596 77.8507C-0.17679 77.0417 -0.242261 75.6645 0.565363 74.7747C1.37299 73.8848 2.74787 73.8192 3.63626 74.6282Z" stroke="white" stroke-width="3.71562"/>
<path d="M8.69567 91.4821C8.69567 90.2795 9.66896 89.3046 10.8696 89.3046H93.4783C94.6789 89.3046 95.6522 88.3297 95.6522 87.127C95.6522 85.9244 94.6789 84.9495 93.4783 84.9495H10.8696C7.26772 84.9495 4.34784 87.8743 4.34784 91.4821C4.34784 95.0899 7.26772 98.0147 10.8696 98.0147H89.1304C90.331 98.0147 91.3043 98.9896 91.3043 100.192C91.3043 101.395 90.331 102.37 89.1304 102.37H6.52175C5.32113 102.37 4.34784 103.345 4.34784 104.547C4.34784 105.75 5.32113 106.725 6.52175 106.725H89.1304C92.7323 106.725 95.6522 103.8 95.6522 100.192C95.6522 96.5844 92.7323 93.6596 89.1304 93.6596H10.8696C9.66896 93.6596 8.69567 92.6847 8.69567 91.4821Z" stroke="white" stroke-width="3.71562"/>
<rect x="152" width="8" height="154" fill="white"/>
<path fill-rule="evenodd" clip-rule="evenodd" d="M776.863 30.2796C779.763 28.7796 784.863 26.9796 788.163 26.2796C791.863 25.3796 797.763 25.0796 803.663 25.2796C809.363 25.5796 815.863 26.5796 819.863 27.7796C823.663 28.9796 826.863 30.1796 827.163 30.5796C827.363 31.0796 827.063 34.1796 826.363 37.6796C825.663 41.0796 824.663 44.0796 824.163 44.2796C823.663 44.4796 820.063 43.0796 816.163 41.1796C810.663 38.4796 807.563 37.5796 801.663 37.1796C796.463 36.7796 792.463 37.0796 788.663 38.1796C784.997 39.2463 781.863 41.0463 779.263 43.5796C777.063 45.6796 774.463 49.3796 773.363 51.8796C772.263 54.3796 770.963 60.1796 770.363 64.8796C769.563 71.1796 769.563 75.6796 770.463 82.3796C771.363 88.5796 772.563 92.8796 774.463 96.2796C775.963 98.9796 778.563 102.08 780.163 103.18C781.763 104.38 785.163 105.88 787.663 106.58C790.163 107.28 794.663 107.88 797.663 107.88C800.663 107.88 805.463 107.28 813.163 105.28L814.163 81.3796L820.163 81.0796C824.263 80.8796 826.363 81.2796 826.863 82.0796C827.263 82.7796 827.663 90.3796 827.663 114.38L817.963 116.88C810.363 118.78 805.663 119.38 797.163 119.38C789.863 119.38 784.263 118.78 780.663 117.68C777.663 116.78 773.163 114.48 770.663 112.68C768.163 110.78 764.763 107.48 763.163 105.28C761.463 103.18 759.063 98.4796 757.763 94.8796C756.163 90.3796 755.363 85.1796 754.963 77.8796C754.563 70.3796 754.963 65.2796 756.063 59.8796C756.963 55.7796 758.863 49.8796 760.363 46.8796C761.863 43.8796 764.963 39.4796 767.363 37.0796C769.763 34.7796 774.063 31.6796 776.863 30.2796ZM511.163 118.88V72.3796V25.8796H527.963C537.163 25.8796 546.763 26.3796 549.363 26.8796C552.063 27.4796 556.163 29.1796 558.663 30.6796C561.463 32.3796 563.863 34.9796 565.063 37.3796C566.263 39.6796 567.263 44.1796 567.463 47.8796C567.763 53.2796 567.363 55.1796 565.363 59.3796C563.963 62.1796 561.263 65.4796 559.263 66.8796C557.263 68.2796 555.663 69.6796 555.663 70.0796C555.663 70.5796 557.363 71.3796 559.363 72.0796C561.463 72.7796 564.663 74.6796 566.463 76.2796C568.263 77.9796 570.463 81.1796 571.363 83.3796C572.463 86.2796 572.763 89.4796 572.363 94.8796C571.863 100.98 571.263 103.08 568.963 106.38C567.063 109.08 564.063 111.38 559.663 113.58C556.063 115.38 550.263 117.28 546.663 117.88C543.063 118.38 533.663 118.88 511.163 118.88ZM590.363 99.8796C588.863 95.0796 588.663 89.8796 588.663 60.1796V25.8796H602.663L602.463 58.6796C602.363 89.5796 602.463 91.6796 604.363 95.8796C605.463 98.3796 607.263 101.18 608.263 102.08C609.263 103.08 611.963 104.48 614.163 105.28C616.363 106.18 620.663 106.78 623.663 106.78C626.663 106.78 630.963 106.18 633.163 105.28C635.363 104.48 638.063 103.08 639.063 102.08C640.063 101.18 641.763 98.5796 642.763 96.3796C644.463 92.7796 644.663 89.2796 644.663 25.8796H658.363L658.163 95.3796L654.863 102.18C652.563 107.08 650.463 109.78 646.963 112.38C644.263 114.38 639.863 116.68 637.163 117.68C633.863 118.78 629.063 119.38 622.663 119.38C615.863 119.38 611.563 118.88 607.663 117.48C603.863 116.08 600.663 113.98 597.163 110.48C593.463 106.78 591.563 103.88 590.363 99.8796ZM682.163 118.98L682.063 72.3796L681.963 25.7796L702.063 26.0796C720.463 26.3796 722.563 26.6796 727.163 28.7796C729.963 29.9796 733.263 32.0796 734.563 33.2796C735.863 34.4796 737.763 37.2796 738.963 39.4796C740.263 42.0796 741.163 45.9796 741.463 50.9796C741.763 57.0796 741.463 59.5796 739.563 64.4796C738.163 68.0796 735.763 71.9796 733.263 74.4796C730.963 76.6796 727.963 79.3796 723.663 82.4796L732.363 95.1796C735.02 98.9744 737.794 102.916 740.032 106.097C741.922 108.783 743.431 110.926 744.163 111.98C746.163 114.58 746.863 116.28 746.163 116.98C745.663 117.48 742.363 118.48 738.863 119.18C732.563 120.38 732.463 120.38 730.463 117.98C729.363 116.58 724.663 108.78 711.663 85.9796L695.163 85.8796L696.663 118.98H682.163ZM849.163 118.98L848.963 72.4796L848.663 25.9796H903.663V29.6796C903.663 31.7796 903.363 34.4796 903.163 35.6796C902.663 37.9796 902.563 37.9796 863.663 37.9796V42.6796C863.663 45.2796 863.363 51.5796 862.163 65.9796H895.663V68.6796C895.663 70.1796 895.363 72.8796 894.163 77.9796H862.663V106.98H903.663V110.68C903.663 112.78 903.363 115.48 902.663 118.98H849.163ZM920.263 118.98L920.063 72.3796L919.963 25.7796L940.063 26.0796C958.563 26.4796 960.663 26.6796 965.263 28.7796C967.963 29.9796 971.263 32.0796 972.563 33.2796C973.863 34.4796 975.863 37.2796 976.963 39.4796C978.363 42.0796 979.163 45.9796 979.463 50.9796C979.863 57.0796 979.463 59.5796 977.663 64.4796C976.263 68.0796 973.763 71.9796 971.263 74.4796C969.063 76.6796 965.963 79.3796 961.663 82.4796L970.463 95.1796C975.263 102.18 980.563 109.68 982.263 111.98C984.163 114.58 984.863 116.38 984.263 116.98C983.663 117.48 980.363 118.48 976.863 119.18C970.563 120.38 970.463 120.38 968.563 117.98C967.463 116.58 962.763 108.78 949.763 85.9796H933.263L934.763 118.98H920.263ZM316.963 51.7796C319.863 50.0796 324.663 47.7796 327.663 46.8796C330.763 45.8796 334.963 45.0796 337.163 44.9796C339.363 44.9796 343.463 45.5796 346.163 46.3796C349.497 47.313 352.263 48.9796 354.463 51.3796C356.263 53.3796 357.963 56.1796 358.363 57.6796C358.663 59.1796 358.763 62.2796 358.563 64.4796C358.263 66.6796 357.063 70.4796 355.963 72.9796C354.763 75.3796 351.863 79.9796 349.463 83.0796C347.163 86.2796 341.663 92.8796 329.663 106.98L347.463 106.88C361.263 106.78 365.363 107.08 365.863 108.08C366.263 108.88 366.363 110.48 366.163 111.68C365.977 112.487 365.752 113.604 365.416 115.27C365.212 116.285 364.966 117.503 364.663 118.98H310.663V114.18C310.663 109.487 310.763 109.38 323.6 95.5482L323.663 95.4796C330.863 87.7796 338.363 79.1796 340.263 76.4796C342.163 73.6796 344.063 69.6796 344.363 67.4796C344.963 63.9796 344.663 63.0796 342.363 60.6796C340.163 58.4796 338.863 57.9796 334.963 57.9796C332.263 57.9796 328.163 58.8796 325.663 60.0796C323.263 61.1796 319.863 63.1796 318.163 64.4796C316.563 65.7796 314.863 66.8796 314.463 66.8796C314.063 66.9796 313.263 64.6796 312.663 61.9796C312.59 61.5711 312.517 61.1647 312.446 60.767C312.028 58.4386 311.663 56.4067 311.663 55.9796C311.663 55.3796 314.063 53.4796 316.963 51.7796ZM212.163 54.6796L226.163 50.3796C233.863 48.0796 240.863 46.1796 241.663 46.2796C242.963 46.4796 243.263 51.3796 243.663 118.98H229.663L229.763 91.1796C229.763 75.9796 229.663 63.2796 229.463 63.1796C229.363 62.9796 225.663 63.7796 221.463 64.8796L221.274 64.928C217.049 66.0088 213.254 66.9796 212.663 66.9796C212.163 66.9796 211.763 64.3796 212.163 54.6796ZM423.363 51.9796C425.463 50.6796 429.663 48.6796 432.663 47.7796C436.663 46.4796 440.163 46.0796 445.163 46.3796C449.963 46.6796 453.663 47.5796 456.663 49.1796C459.163 50.4796 462.263 53.0796 463.463 54.9796C464.663 56.8796 465.963 59.9796 466.263 61.9796C466.663 63.9796 466.263 67.7796 465.363 70.9796C464.463 73.9796 462.563 77.7796 460.963 79.4796C459.463 81.0796 456.963 83.3796 452.563 86.4796L458.363 89.4796C462.563 91.6796 464.863 93.6796 466.463 96.4796C468.063 99.2796 468.663 102.08 468.663 106.18C468.663 109.38 467.963 113.68 467.163 115.68C466.263 117.78 464.163 120.98 462.363 122.78C460.663 124.68 457.163 127.18 454.663 128.48C452.263 129.68 447.263 131.28 443.663 131.98C439.563 132.78 434.263 132.98 429.163 132.58C424.563 132.18 420.863 131.38 420.463 130.68C420.063 129.98 419.763 127.18 419.663 119.48L423.963 120.48C426.263 120.98 431.763 121.48 436.163 121.48C442.363 121.48 444.963 120.98 447.563 119.48C449.463 118.38 451.963 116.18 453.063 114.68C454.563 112.68 455.163 110.38 455.163 107.18C455.063 104.18 454.363 101.38 453.163 99.6796C452.063 98.0796 449.463 96.1796 447.463 95.3796C445.363 94.5796 440.563 93.9796 436.663 93.9796C432.863 93.9796 429.563 93.5796 429.363 93.1796C429.163 92.7796 429.163 90.2796 429.663 82.9796H434.163C436.663 82.9796 440.163 82.3796 441.963 81.5796C443.763 80.8796 446.663 78.5796 448.463 76.5796C450.963 73.7796 451.663 72.0796 451.663 68.9796C451.663 66.7796 451.263 64.0796 450.663 62.9796C450.163 61.8796 448.263 60.1796 446.463 59.2796C444.163 58.1796 441.763 57.8796 438.163 58.2796C434.863 58.5796 431.363 59.9796 427.663 62.2796C424.663 64.2796 421.863 65.4796 421.463 65.1796C421.163 64.7796 420.463 62.1796 420.163 59.4796C419.463 54.4796 419.463 54.4796 423.363 51.9796ZM265.363 79.4796L279.763 77.3796C287.663 76.1796 295.463 75.1796 296.963 75.0796C299.563 74.9796 299.663 75.1796 299.663 79.9796C299.663 84.7796 299.663 84.9796 296.463 85.4796C295.148 85.6988 290.842 86.3452 285.771 87.1067C283.902 87.3872 281.929 87.6834 279.963 87.9796C272.663 89.0796 266.263 89.9796 265.663 89.9796C265.163 89.9796 264.863 87.7796 265.363 79.4796ZM375.663 80.9796C376.363 79.8796 381.063 78.7796 390.863 77.2796C398.763 76.1796 406.463 75.1796 407.963 75.0796C410.563 74.9796 410.663 75.1796 410.663 79.9796C410.663 84.8796 410.663 84.9796 407.463 85.3796C405.663 85.6796 397.863 86.8796 390.163 87.9796C378.863 89.6796 376.063 89.7796 375.463 88.7796C375.063 88.0796 374.763 86.2796 374.763 84.9796C374.763 83.5796 375.163 81.7796 375.663 80.9796ZM525.663 65.8796V51.8796V37.8796H533.363C537.663 37.8796 542.863 38.3796 544.863 38.8796C547.463 39.5796 549.363 40.9796 550.763 43.1796C552.263 45.6796 552.663 47.6796 552.463 52.0796C552.263 56.4796 551.563 58.2796 549.663 60.3796C548.263 61.8796 545.963 63.6796 544.463 64.4796C542.763 65.3796 538.563 65.8796 525.663 65.8796ZM695.863 62.6796C696.363 56.4796 696.663 48.2796 696.763 44.5796L696.863 37.6796L706.463 38.0796C712.463 38.2796 717.263 38.9796 719.063 39.8796C720.663 40.6796 722.963 42.6796 724.063 44.1796C725.763 46.4796 726.163 48.4796 726.163 54.2796C726.163 60.4796 725.763 62.0796 723.463 65.6796C721.863 68.0796 718.963 70.7796 716.663 71.8796C713.563 73.3796 710.663 73.8796 695.163 73.8796L695.863 62.6796ZM933.863 62.6796C934.363 56.4796 934.663 48.3796 934.763 44.5796L934.863 37.7796L944.463 38.0796C950.463 38.2796 955.263 39.0796 957.063 39.9796C958.663 40.7796 960.963 42.6796 962.063 44.2796C963.763 46.4796 964.163 48.5796 964.163 54.3796C964.163 60.5796 963.763 62.1796 961.463 65.7796C959.863 68.0796 956.963 70.7796 954.663 71.9796C951.563 73.4796 948.663 73.9796 933.163 73.9796L933.863 62.6796ZM525.363 95.1796C524.863 88.1796 524.763 81.1796 525.163 79.6796L525.863 76.8796H535.463C542.763 76.9796 546.163 77.3796 549.163 78.7796C551.363 79.7796 553.963 81.4796 554.963 82.4796C555.863 83.5796 557.063 85.9796 557.563 87.8796C558.063 89.8796 558.063 93.1796 557.663 95.3796C557.063 97.9796 555.563 100.48 553.263 102.68C551.263 104.48 547.963 106.38 545.963 106.88C543.863 107.48 538.563 107.88 526.163 107.88L525.363 95.1796Z" fill="white"/>
</g>
<defs>
<clipPath id="clip0_42_419">
<rect width="984.472" height="154" fill="white"/>
</clipPath>
</defs>
</svg>
