<svg width="86" height="31" viewBox="0 0 86 31" fill="none" xmlns="http://www.w3.org/2000/svg">
<path d="M3.10752 3.08621C4.24977 4.12462 5.18653 4.46088 5.945 4.46088C6.70347 4.46088 7.64024 4.12462 8.78249 3.08621C10.365 1.64754 12.153 0.745258 14.1194 0.745258C16.0857 0.745258 17.8737 1.64754 19.4562 3.08621C20.5985 4.12462 21.5353 4.46088 22.2937 4.46088C23.0522 4.46088 23.989 4.12462 25.1312 3.08621C26.7137 1.64754 28.5018 0.745258 30.4681 0.745258C32.4344 0.745258 34.2224 1.64754 35.805 3.08621C36.9472 4.12462 37.884 4.46088 38.6424 4.46088C39.4009 4.46088 40.3377 4.12462 41.4799 3.08621C43.0625 1.64754 44.8505 0.745258 46.8168 0.745258C48.7831 0.745258 50.5711 1.64754 52.1537 3.08621C53.2959 4.12462 54.2327 4.46088 54.9912 4.46088C55.7496 4.46088 56.6864 4.12462 57.8286 3.08621C59.4112 1.64754 61.1992 0.745258 63.1655 0.745258C65.1318 0.745258 66.9199 1.64754 68.5024 3.08621C69.6447 4.12462 70.5814 4.46088 71.3399 4.46088C72.0984 4.46088 73.0351 4.12462 74.1774 3.08621C75.7599 1.64754 77.5479 0.745258 79.5142 0.745258C81.4806 0.745258 83.2686 1.64754 84.8511 3.08621C85.6103 3.7764 85.6663 4.95136 84.9761 5.71057C84.2859 6.46978 83.1109 6.52573 82.3517 5.83554C81.2095 4.79714 80.2727 4.46088 79.5142 4.46088C78.7558 4.46088 77.819 4.79714 76.6768 5.83554C75.0942 7.27421 73.3062 8.17649 71.3399 8.17649C69.3736 8.17649 67.5856 7.27421 66.003 5.83554C64.8608 4.79714 63.924 4.46088 63.1655 4.46088C62.4071 4.46088 61.4703 4.79714 60.328 5.83554C58.7455 7.27421 56.9575 8.17649 54.9912 8.17649C53.0248 8.17649 51.2368 7.27421 49.6543 5.83554C48.512 4.79714 47.5753 4.46088 46.8168 4.46088C46.0583 4.46088 45.1216 4.79714 43.9793 5.83554C42.3968 7.27421 40.6088 8.17649 38.6424 8.17649C36.6761 8.17649 34.8881 7.27421 33.3056 5.83554C32.1633 4.79714 31.2266 4.46088 30.4681 4.46088C29.7096 4.46088 28.7728 4.79714 27.6306 5.83554C26.0481 7.27421 24.26 8.17649 22.2937 8.17649C20.3274 8.17649 18.5394 7.27421 16.9568 5.83554C15.8146 4.79714 14.8778 4.46088 14.1194 4.46088C13.3609 4.46088 12.4241 4.79714 11.2819 5.83554C9.69934 7.27421 7.91132 8.17649 5.945 8.17649C3.97868 8.17649 2.19066 7.27421 0.608125 5.83554C-0.151083 5.14535 -0.207034 3.97038 0.483155 3.21118C1.17334 2.45197 2.34831 2.39602 3.10752 3.08621Z" fill="white"/>
<path d="M7.43125 17.4655C7.43125 16.4395 8.26302 15.6077 9.28906 15.6077H79.8858C80.9118 15.6077 81.7436 14.776 81.7436 13.7499C81.7436 12.7239 80.9118 11.8921 79.8858 11.8921H9.28906C6.21094 11.8921 3.71563 14.3874 3.71563 17.4655C3.71563 20.5437 6.21094 23.039 9.28906 23.039H76.1702C77.1962 23.039 78.028 23.8707 78.028 24.8968C78.028 25.9228 77.1962 26.7546 76.1702 26.7546H5.57344C4.5474 26.7546 3.71563 27.5864 3.71563 28.6124C3.71563 29.6384 4.5474 30.4702 5.57344 30.4702H76.1702C79.2483 30.4702 81.7436 27.9749 81.7436 24.8968C81.7436 21.8187 79.2483 19.3233 76.1702 19.3233H9.28906C8.26302 19.3233 7.43125 18.4916 7.43125 17.4655Z" fill="white"/>
</svg>
